<?xml version="1.0" encoding="utf-8"?>
<!-- Generator: Adobe Illustrator 15.1.0, SVG Export Plug-In . SVG Version: 6.00 Build 0)  -->
<!DOCTYPE svg PUBLIC "-//W3C//DTD SVG 1.1//EN" "http://www.w3.org/Graphics/SVG/1.1/DTD/svg11.dtd" [
	<!ENTITY ns_flows "http://ns.adobe.com/Flows/1.0/">
	<!ENTITY ns_extend "http://ns.adobe.com/Extensibility/1.0/">
	<!ENTITY ns_ai "http://ns.adobe.com/AdobeIllustrator/10.0/">
	<!ENTITY ns_graphs "http://ns.adobe.com/Graphs/1.0/">
	<!ENTITY ns_vars "http://ns.adobe.com/Variables/1.0/">
	<!ENTITY ns_imrep "http://ns.adobe.com/ImageReplacement/1.0/">
	<!ENTITY ns_sfw "http://ns.adobe.com/SaveForWeb/1.0/">
	<!ENTITY ns_custom "http://ns.adobe.com/GenericCustomNamespace/1.0/">
	<!ENTITY ns_adobe_xpath "http://ns.adobe.com/XPath/1.0/">
]>
<svg version="1.1"
	 xmlns:x="&ns_extend;" xmlns:i="&ns_ai;" xmlns:graph="&ns_graphs;" i:viewOrigin="426.9609 -298.9541" i:rulerOrigin="-426.9609 469.0459" i:pageBounds="426.9609 -298.9541 1307.5698 -469.0459"
	 xmlns="http://www.w3.org/2000/svg" xmlns:xlink="http://www.w3.org/1999/xlink" xmlns:a="http://ns.adobe.com/AdobeSVGViewerExtensions/3.0/"
	 x="0px" y="0px" width="880.609px" height="170.092px" viewBox="0 0 880.609 170.092" enable-background="new 0 0 880.609 170.092"
	 xml:space="preserve">
<metadata><?xpacket begin="﻿" id="W5M0MpCehiHzreSzNTczkc9d"?>
<x:xmpmeta xmlns:x="adobe:ns:meta/" x:xmptk="Adobe XMP Core 5.0-c060 61.134777, 2010/02/12-17:32:00        ">
   <rdf:RDF xmlns:rdf="http://www.w3.org/1999/02/22-rdf-syntax-ns#">
      <rdf:Description rdf:about=""
            xmlns:dc="http://purl.org/dc/elements/1.1/">
         <dc:format>image/svg+xml</dc:format>
         <dc:title>
            <rdf:Alt>
               <rdf:li xml:lang="x-default">BS-LOGO</rdf:li>
            </rdf:Alt>
         </dc:title>
      </rdf:Description>
      <rdf:Description rdf:about=""
            xmlns:xmp="http://ns.adobe.com/xap/1.0/"
            xmlns:xmpGImg="http://ns.adobe.com/xap/1.0/g/img/">
         <xmp:CreatorTool>Adobe Illustrator CS5.1</xmp:CreatorTool>
         <xmp:CreateDate>2018-07-02T10:01:59+02:00</xmp:CreateDate>
         <xmp:ModifyDate>2018-07-02T10:02+02:00</xmp:ModifyDate>
         <xmp:MetadataDate>2018-07-02T10:02+02:00</xmp:MetadataDate>
         <xmp:Thumbnails>
            <rdf:Alt>
               <rdf:li rdf:parseType="Resource">
                  <xmpGImg:width>256</xmpGImg:width>
                  <xmpGImg:height>48</xmpGImg:height>
                  <xmpGImg:format>JPEG</xmpGImg:format>
                  <xmpGImg:image>/9j/4AAQSkZJRgABAgEASABIAAD/7QAsUGhvdG9zaG9wIDMuMAA4QklNA+0AAAAAABAASAAAAAEA&#xA;AQBIAAAAAQAB/+4ADkFkb2JlAGTAAAAAAf/bAIQABgQEBAUEBgUFBgkGBQYJCwgGBggLDAoKCwoK&#xA;DBAMDAwMDAwQDA4PEA8ODBMTFBQTExwbGxscHx8fHx8fHx8fHwEHBwcNDA0YEBAYGhURFRofHx8f&#xA;Hx8fHx8fHx8fHx8fHx8fHx8fHx8fHx8fHx8fHx8fHx8fHx8fHx8fHx8fHx8f/8AAEQgAMAEAAwER&#xA;AAIRAQMRAf/EAaIAAAAHAQEBAQEAAAAAAAAAAAQFAwIGAQAHCAkKCwEAAgIDAQEBAQEAAAAAAAAA&#xA;AQACAwQFBgcICQoLEAACAQMDAgQCBgcDBAIGAnMBAgMRBAAFIRIxQVEGE2EicYEUMpGhBxWxQiPB&#xA;UtHhMxZi8CRygvElQzRTkqKyY3PCNUQnk6OzNhdUZHTD0uIIJoMJChgZhJRFRqS0VtNVKBry4/PE&#xA;1OT0ZXWFlaW1xdXl9WZ2hpamtsbW5vY3R1dnd4eXp7fH1+f3OEhYaHiImKi4yNjo+Ck5SVlpeYmZ&#xA;qbnJ2en5KjpKWmp6ipqqusra6voRAAICAQIDBQUEBQYECAMDbQEAAhEDBCESMUEFURNhIgZxgZEy&#xA;obHwFMHR4SNCFVJicvEzJDRDghaSUyWiY7LCB3PSNeJEgxdUkwgJChgZJjZFGidkdFU38qOzwygp&#xA;0+PzhJSktMTU5PRldYWVpbXF1eX1RlZmdoaWprbG1ub2R1dnd4eXp7fH1+f3OEhYaHiImKi4yNjo&#xA;+DlJWWl5iZmpucnZ6fkqOkpaanqKmqq6ytrq+v/aAAwDAQACEQMRAD8A9U4qp3FxBbQSXFxIsUES&#xA;l5JHICqoFSSThjEk0OaCQBZYxwbzEG1LVCbTyxArPb2kpMX1lQN7i5rSkVN0jPX7TdhmX/demO+T&#xA;v7vIefn8nFH7z1S2x/f5nySHSfNuhWt/NN5Wna80hBy1DRlSQPCg2NzZI4FVX/dkS9t1FdjkZdNM&#xA;xHiCpdJfol+gtOLUw4vQbHd+kfqeh2d5a3trFd2kqz206h4ZkNVZTuCCM1somJo83YAgiwrZFLsV&#xA;dirsVdirsVdirsVdirsVdirsVdirsVdirsVdirsVdirsVdirsVdirsVdirsVdiqyeeG3heed1ihi&#xA;UvJI5oqqNySThjEk0OaJSAFnkxxIX8xSLqGoqYPL1ufVtLOX4frBTcXFwD0jHVEP+s3YZlkjEOGO&#xA;8zzPd5Dz7y4kQcx4j9HQd/mfLuDzDWvN2rfml5k/wx5Zc2/l6A+pd3jAj1URgDK42PCpHBO53P8A&#xA;k7HDhjpYeJPefRx88pZpcEeSUeYb3yNomvw6Z5Su7x9a0w/6Tdpxe3Lr9o+pyBDqdmCqV7eOZell&#xA;lyD96BwycLWaeOIcUCeKLPvKWtahBpknmKxtWfS2mZNc0qEcvTlCq73lmg8Q9ZYh13K7/a12swRE&#xA;+AnevSf0H9Bc3Q6gzhx11o/rH6npFle2l9aQ3lnMs9rOokhmjPJWVtwQRmplExNHm7MG9wrYEuxV&#xA;2KuxV2KuxV2KuxV2KuxV2KuxV2KuxV2KuxV2KuxV2KuxV2KuxV2KuxV2KuxVjsEEnmOaO8u1K6FG&#xA;weytD/x8sDVZ5h/vvuid/tHsMzJEYRwj6+p7vIefeXCiDnPEf7voP53mfLuDIXRHRkdQyMCrKwqC&#xA;DsQQcw3NfJ/m59P8tec9S0nyBqMv+lI9vcvGxCW6N8U8KyAkyBeP2v2em7bjp8HFlxg5B+3udXkE&#xA;YSJB2ek/l3+V3kvUfJluljeOdRMqyardcVE3MKQIeJJ4RitV8evsMTUazLhymxtW3cxGHHqcYo1R&#xA;3evaXpdjpdjFY2MQit4hRVHUnuzHuT3OafLllOXFLm7LFijjjwxGzGdRtbjyhcz61pqGXy9KzTaz&#xA;pidbcnd7y2X/AIaWMdftL8VQ18ZDKOE/X0Pf5H9BQRwbjky9HV1DqeSsAVI6EHMRteda1eW835j3&#xA;mn6pr1xpOnRabbzW8cd59URpXlkVjuQCeIGKt6DqE0H5gQaXouuza/os1pLNqizTC7FpIpHolZ1H&#xA;wmTpwJ9/DFU5/MjUL6x0jTpLOd7eSTVbGGRo2Klo5JgroadmGxxVlmKsR85arr02r6Z5W0CdbK91&#xA;FJbm91JlDtb2kJVWMaHYyOzhVr0/EKoa88ha5Z2xutB8zaodXiHOJNRuDdWszA14SxMtFDdKpSmK&#xA;p75Q8yR+YPK9jrZj+r/WI2M8Z6JJEzRyrU9ldGofDFWKeXrLXvPEDeYdS1a90vR7lm/Q+l6bMbZh&#xA;ArFRLcSoObO9K0BoPwCrLPLuh6jpAuILjV7jVbRiptBeBWniFDzVpl4mQE0pyFR4nFUkv/MX6N/M&#xA;e8W/vTb6La+X0vJY3YiJZPrjoZOP8xUBfE9MVVPK0uveYr5PM15JNp+ilD+hdIVihkjfpc3fH7TO&#xA;N0Too98VZhirEPzP1fUtM8v28tncvYW897Bb6nqUSc3tbOQkSzKKNQg8VrTavjirXlzQrE3MGpaL&#xA;5sv9StEJ+sQSXiX8EoZaUJcOUNd/hIxVFefNf1TTLCzs9GVG1vWLpLGwaUVjiLAs8zjuI0Umn68V&#xA;QI/LzUhAJf8AFus/pcDl9aM4NuZf+YTj6Pp1/Z8O+Kp5r+tny75VutWvmFxLYW3OUqPTEsoUAUWr&#xA;cQ7+5pXFWO6Z5J8x6pZrf+ZvMOpQapcDmbTTLg2ltbBt1jVEHxlehL1r+OKojylqmv2PmO98o69c&#xA;jUJoLdb/AErUuIWSa0MnpFZgoC+pG9ASOvXFWvOUF5febvLekx6leafa3UOoyXBsZjC7tCIDHU0a&#xA;tOZ7Yqg9Qt9U8o6zoUtvrd7qVlq18mnXdhqMizn98jFZoX4q6lCm46HFUx/NjUL3T/IWpXdlcyWd&#xA;wj2oW5iYo6B7uJGow6VViMVQNlpPlp7yFYPPN/czF19O3GqxPzauy8AKtXwxVPfP2p6vpfk/VL/R&#xA;4zJqMEQaEBeZWrAO4X9rghLU9sVY/wCW9E0vUIra90TzvqN/cIUknf64twkg2LLJayBljqCRxoCv&#xA;0Yqn1rcSeXpotOvG5aPIRHp14f8AdJOy28x8O0b/AEHfrmTiMw4h9fUd/mP0hwoE4Twy+joe7yP6&#xA;Cxv8+NU806b5Dmn0A+mHkWLUbhDSaO2cEEx/NqBiNwPpIn2dCEstS+Hvb85Ijs8Y8tfl3o/mjyNP&#xA;qPlmZ7fzJoYWe9kuJVVJy4ZmjoaLD6fpfu3Jo37X+Tt82pOLIBLeMvs/W4OOJnxCqr7bXfl1541C&#xA;zuVvrM+ndQ0S6i/3VKh33A8afQemZeXBHLHhk6rKZaeYlA8/xT6f0jUU1LS7W/RDGt1EsojJqV5C&#xA;tKjOSy4+CZj3F6TDl8SAl3hjWrXdz5rurny/pTmPRoy0Gvasv7Vdns7Y95GG0j/sDYfF0vhEYgJy&#xA;+roP0n9HepPFsOXVl6IqIqIKKoAUDsBsMxG15zrUFjB+ZV7favolzqWny6ZbxW8seny30YlWWQsK&#xA;pHIFPE4qp29vFeeeNEu/LHl640e3tDMdZv5rN9PilgaMqkPpsIzMee4+H4TT3xVOvzTgvJfL9k9r&#xA;az3jW2p2VxJDaxPNL6cUwdyEQFjQDFUZY+e7W8vIbVdH1mFpnCCWfTriKJeRpV3ZaKviTiqE85ad&#xA;rlprWmea9Etjfz6fHLa6hpytxkns5irExVNPUjdAwX9rFUPf/mJqF3aG28u+X9Tm1qWiRx3tpJaw&#xA;QM37U8sgCAL1oCa4qnnk7y2ugeVbHRJJBcNBGwuJOzyTO0kpFf2S7tT2xVivl3VNW8jWx8ua1pl5&#xA;d6XZsw0jWbCB7lHt2YsqTpHyaOROVOlD+JVZb5d1+81n6xM+k3Om2KFRaS3oEUs3XmfQ+3Go2oW6&#xA;+GKsW1vybba7+a8V1qtnLcaRbaNGV5K31WS4W6lpHIacHKq/LgT4HFUX5cs9Y8pa0vl70Z77yvd8&#xA;n0e8VXlaybqbWcjkRF/vt26dD7Ks3xVKfMmr3el2cc8Okz6vAz8LyK14tKkRU1dYmIMu9BxXehri&#xA;rAPqml6p5q0W98oaDd6TeQXay6xqLWslhD9TAPrQSKwjWV5NqUU061xVlvn7Q9W1Cysb/RODa1ot&#xA;0l9ZQyHik1FKSQM37IkRzv4+HXFUGv5lM0IiXy3rP6XIp+jjaOAH6b3B/c+nX9uvTemKp15i0RvM&#xA;nlO70m7X6rLqFtxdaiQRSkBl3GzcHA6dcVY/pnn7VdOs0sfNGh6imsQARvLY2sl3b3JFAHhkiDCr&#xA;9SrUpiqt5S0/XtS8z3vm/WrM6b6tsNO0nTnIMyWok9VpJ6EgPI9Ph7UpirXnPy/d6x5w8tCOW9tL&#xA;aGDUfXvrFmjaMuLfgrShWC8+JoD1piqXxeU7jQvPunajc/X/ADDp9zGba1u7p5LqXTrk1q9FHFYp&#xA;l+Evx+E9TTFU2/Nuyu73yBqVtaW0t5O72pW2gjaWRwl3EzcUUEtRVJOKpfBr/k63mSeDyZqMM0ZD&#xA;Ryx6HKrKw6FWEdQcVZjrV9e2Gmy3dlYvqU8XEiziZUkdeQDlS+xKrUgd+mKvMPM40nzCkTeWfLN/&#xA;Yeb/AF42t9RayksDbMHBd7ieiIy8OQ4ktXtir1m6tbe6t5La5jWWCVSkkbiqsp6gjJRkYmxzYyiJ&#xA;CjyeWfmh5U1a+8vQ6CbsiCG6jutE1CU9JkR0S0uZP2eXqfupT3oG33O10maPHxgb16h+kfpDgZYy&#xA;gOE/T0P6D+gvApdG1GC8ubUTSaTPIDbatafGnJQ4Zl4LQGrLXg1FqNjTpuwBIAjcdHDOo4NpPYPy&#xA;p/LJL6CG9vITBokRrBCft3L92Y7VG3xN36CgG2BrtcMQ4Y/X9zHT6WWolxz+j73pF7d3XmC5k0LQ&#xA;pDaaTan0dW1aH4acdjaWhG3qU2dxtGNh8XTTxiIDjnvI8h+k/jd3F8XpjtEfigyTT9PstOsobGxh&#xA;W3tLdQkMKCiqo/z3OY0pGRs824AAUERkUuxV2KuxV2KuxV2KuxV2KuxV2KuxV2KuxV2KuxV2KuxV&#xA;2KuxV2KuxV2KuxV2KuxV2KqV1a213bSW1zGs1vMpSWJxVWU9QRkoyMTY5olEEUeTzjWfJXly31m2&#xA;l8yxNNp0dFs9XLleKr9m2v27qv7Eppt8LHx2eLVTMT4e0uo/TH9Idbk00BIcf09/6JfrZBPfTeYm&#xA;/ROgSm30SIBL/V4PhUoNvq9kw2LEbNIuyDp8XTGEfD9U959B+mX6urlcXH6Y/T3/AKAyWwsLLT7K&#xA;GysoVt7W3UJDCgoqqMxZzMjZ5uRGIAoK+RS7FXYq7FXYq7FXYq7FXYq7FXYq7FXYq7FXYq7FXYq7&#xA;FXYq7FXYq7FXYq7FXYq7FXYq/wD/2Q==</xmpGImg:image>
               </rdf:li>
            </rdf:Alt>
         </xmp:Thumbnails>
      </rdf:Description>
      <rdf:Description rdf:about=""
            xmlns:xmpMM="http://ns.adobe.com/xap/1.0/mm/"
            xmlns:stRef="http://ns.adobe.com/xap/1.0/sType/ResourceRef#"
            xmlns:stEvt="http://ns.adobe.com/xap/1.0/sType/ResourceEvent#">
         <xmpMM:RenditionClass>proof:pdf</xmpMM:RenditionClass>
         <xmpMM:OriginalDocumentID>uuid:65E6390686CF11DBA6E2D887CEACB407</xmpMM:OriginalDocumentID>
         <xmpMM:DocumentID>xmp.did:06801174072068118083C3525673D6BE</xmpMM:DocumentID>
         <xmpMM:InstanceID>xmp.iid:06801174072068118083C3525673D6BE</xmpMM:InstanceID>
         <xmpMM:DerivedFrom rdf:parseType="Resource">
            <stRef:instanceID>xmp.iid:05801174072068118083C3525673D6BE</stRef:instanceID>
            <stRef:documentID>xmp.did:05801174072068118083C3525673D6BE</stRef:documentID>
            <stRef:originalDocumentID>uuid:65E6390686CF11DBA6E2D887CEACB407</stRef:originalDocumentID>
            <stRef:renditionClass>proof:pdf</stRef:renditionClass>
         </xmpMM:DerivedFrom>
         <xmpMM:History>
            <rdf:Seq>
               <rdf:li rdf:parseType="Resource">
                  <stEvt:action>saved</stEvt:action>
                  <stEvt:instanceID>xmp.iid:0080117407206811822AF32EECC5B85E</stEvt:instanceID>
                  <stEvt:when>2018-06-20T18:03:55+02:00</stEvt:when>
                  <stEvt:softwareAgent>Adobe Illustrator CS5.1</stEvt:softwareAgent>
                  <stEvt:changed>/</stEvt:changed>
               </rdf:li>
               <rdf:li rdf:parseType="Resource">
                  <stEvt:action>saved</stEvt:action>
                  <stEvt:instanceID>xmp.iid:1820EEC836206811822AF32EECC5B85E</stEvt:instanceID>
                  <stEvt:when>2018-06-20T18:18:38+02:00</stEvt:when>
                  <stEvt:softwareAgent>Adobe Illustrator CS5.1</stEvt:softwareAgent>
                  <stEvt:changed>/</stEvt:changed>
               </rdf:li>
               <rdf:li rdf:parseType="Resource">
                  <stEvt:action>saved</stEvt:action>
                  <stEvt:instanceID>xmp.iid:722C967761206811822AEB41B185031A</stEvt:instanceID>
                  <stEvt:when>2018-06-28T12:48:35+02:00</stEvt:when>
                  <stEvt:softwareAgent>Adobe Illustrator CS5.1</stEvt:softwareAgent>
                  <stEvt:changed>/</stEvt:changed>
               </rdf:li>
               <rdf:li rdf:parseType="Resource">
                  <stEvt:action>saved</stEvt:action>
                  <stEvt:instanceID>xmp.iid:742C967761206811822AEB41B185031A</stEvt:instanceID>
                  <stEvt:when>2018-06-28T12:49+02:00</stEvt:when>
                  <stEvt:softwareAgent>Adobe Illustrator CS5.1</stEvt:softwareAgent>
                  <stEvt:changed>/</stEvt:changed>
               </rdf:li>
               <rdf:li rdf:parseType="Resource">
                  <stEvt:action>saved</stEvt:action>
                  <stEvt:instanceID>xmp.iid:752C967761206811822AEB41B185031A</stEvt:instanceID>
                  <stEvt:when>2018-06-28T12:49:21+02:00</stEvt:when>
                  <stEvt:softwareAgent>Adobe Illustrator CS5.1</stEvt:softwareAgent>
                  <stEvt:changed>/</stEvt:changed>
               </rdf:li>
               <rdf:li rdf:parseType="Resource">
                  <stEvt:action>saved</stEvt:action>
                  <stEvt:instanceID>xmp.iid:2CF405497F206811822AEB41B185031A</stEvt:instanceID>
                  <stEvt:when>2018-06-28T12:52:30+02:00</stEvt:when>
                  <stEvt:softwareAgent>Adobe Illustrator CS5.1</stEvt:softwareAgent>
                  <stEvt:changed>/</stEvt:changed>
               </rdf:li>
               <rdf:li rdf:parseType="Resource">
                  <stEvt:action>saved</stEvt:action>
                  <stEvt:instanceID>xmp.iid:03801174072068118083C3525673D6BE</stEvt:instanceID>
                  <stEvt:when>2018-07-02T09:59:53+02:00</stEvt:when>
                  <stEvt:softwareAgent>Adobe Illustrator CS5.1</stEvt:softwareAgent>
                  <stEvt:changed>/</stEvt:changed>
               </rdf:li>
               <rdf:li rdf:parseType="Resource">
                  <stEvt:action>saved</stEvt:action>
                  <stEvt:instanceID>xmp.iid:04801174072068118083C3525673D6BE</stEvt:instanceID>
                  <stEvt:when>2018-07-02T10:01:28+02:00</stEvt:when>
                  <stEvt:softwareAgent>Adobe Illustrator CS5.1</stEvt:softwareAgent>
                  <stEvt:changed>/</stEvt:changed>
               </rdf:li>
               <rdf:li rdf:parseType="Resource">
                  <stEvt:action>saved</stEvt:action>
                  <stEvt:instanceID>xmp.iid:05801174072068118083C3525673D6BE</stEvt:instanceID>
                  <stEvt:when>2018-07-02T10:01:43+02:00</stEvt:when>
                  <stEvt:softwareAgent>Adobe Illustrator CS5.1</stEvt:softwareAgent>
                  <stEvt:changed>/</stEvt:changed>
               </rdf:li>
               <rdf:li rdf:parseType="Resource">
                  <stEvt:action>saved</stEvt:action>
                  <stEvt:instanceID>xmp.iid:06801174072068118083C3525673D6BE</stEvt:instanceID>
                  <stEvt:when>2018-07-02T10:02+02:00</stEvt:when>
                  <stEvt:softwareAgent>Adobe Illustrator CS5.1</stEvt:softwareAgent>
                  <stEvt:changed>/</stEvt:changed>
               </rdf:li>
            </rdf:Seq>
         </xmpMM:History>
      </rdf:Description>
      <rdf:Description rdf:about=""
            xmlns:illustrator="http://ns.adobe.com/illustrator/1.0/">
         <illustrator:StartupProfile>Web</illustrator:StartupProfile>
      </rdf:Description>
      <rdf:Description rdf:about=""
            xmlns:xmpTPg="http://ns.adobe.com/xap/1.0/t/pg/"
            xmlns:stDim="http://ns.adobe.com/xap/1.0/sType/Dimensions#"
            xmlns:xmpG="http://ns.adobe.com/xap/1.0/g/">
         <xmpTPg:NPages>1</xmpTPg:NPages>
         <xmpTPg:HasVisibleTransparency>False</xmpTPg:HasVisibleTransparency>
         <xmpTPg:HasVisibleOverprint>False</xmpTPg:HasVisibleOverprint>
         <xmpTPg:MaxPageSize rdf:parseType="Resource">
            <stDim:w>310.659246</stDim:w>
            <stDim:h>60.004606</stDim:h>
            <stDim:unit>Millimeters</stDim:unit>
         </xmpTPg:MaxPageSize>
         <xmpTPg:PlateNames>
            <rdf:Seq>
               <rdf:li>Cyan</rdf:li>
               <rdf:li>Magenta</rdf:li>
               <rdf:li>Yellow</rdf:li>
               <rdf:li>Black</rdf:li>
            </rdf:Seq>
         </xmpTPg:PlateNames>
         <xmpTPg:SwatchGroups>
            <rdf:Seq>
               <rdf:li rdf:parseType="Resource">
                  <xmpG:groupName>Standard-Farbfeldgruppe</xmpG:groupName>
                  <xmpG:groupType>0</xmpG:groupType>
               </rdf:li>
            </rdf:Seq>
         </xmpTPg:SwatchGroups>
      </rdf:Description>
      <rdf:Description rdf:about=""
            xmlns:pdf="http://ns.adobe.com/pdf/1.3/">
         <pdf:Producer>Adobe PDF library 9.90</pdf:Producer>
      </rdf:Description>
   </rdf:RDF>
</x:xmpmeta>
                                                                                                    
                                                                                                    
                                                                                                    
                                                                                                    
                                                                                                    
                                                                                                    
                                                                                                    
                                                                                                    
                                                                                                    
                                                                                                    
                                                                                                    
                                                                                                    
                                                                                                    
                                                                                                    
                                                                                                    
                                                                                                    
                                                                                                    
                                                                                                    
                                                                                                    
                                                                                                    
                           
<?xpacket end="w"?>
	</metadata>
<g id="Ebene_1" i:knockout="Off" i:layer="yes" i:dimmedPercent="50" i:rgbTrio="#4F008000FFFF">
	<g i:knockout="Off">
		<g i:knockout="Off">
			<path fill="#4D4D4D" d="M240.129,88.284c1.67,1.98,2.504,4.531,2.504,7.646c0,4.006-1.48,7.09-4.44,9.248
				c-2.961,2.16-7.335,3.239-13.121,3.239h-21.503V61.674h20.166c5.209,0,9.25,1.047,12.121,3.139
				c2.871,2.093,4.307,5.053,4.307,8.882c0,2.582-0.635,4.774-1.902,6.577c-1.27,1.803-3.017,3.149-5.242,4.04
				C236.09,84.979,238.459,86.305,240.129,88.284z M208.51,65.747v16.962h14.892c3.783,0,6.7-0.723,8.748-2.171
				c2.047-1.446,3.071-3.549,3.071-6.311c0-2.759-1.024-4.863-3.071-6.31c-2.048-1.446-4.965-2.171-8.748-2.171L208.51,65.747
				L208.51,65.747z M234.486,102.208c2.137-1.425,3.205-3.65,3.205-6.679c0-5.831-4.229-8.747-12.688-8.747h-16.494v17.562h16.494
				C229.189,104.345,232.35,103.633,234.486,102.208z"/>
			<path fill="#4D4D4D" d="M267.274,61.674h4.94v42.472h26.178v4.272h-31.118V61.674z"/>
			<path fill="#4D4D4D" d="M326.873,105.714c-3.762-2.07-6.701-4.909-8.814-8.515c-2.115-3.605-3.172-7.656-3.172-12.153
				c0-4.496,1.057-8.547,3.172-12.153c2.113-3.606,5.053-6.444,8.814-8.514c3.762-2.07,7.957-3.105,12.588-3.105
				c4.629,0,8.803,1.024,12.521,3.071c3.716,2.049,6.644,4.886,8.781,8.515c2.136,3.629,3.205,7.69,3.205,12.187
				s-1.069,8.56-3.205,12.188c-2.138,3.629-5.065,6.467-8.781,8.515c-3.718,2.048-7.892,3.071-12.521,3.071
				C334.83,108.818,330.635,107.783,326.873,105.714z M349.477,101.907c2.982-1.669,5.32-3.983,7.012-6.944
				c1.692-2.961,2.538-6.267,2.538-9.917c0-3.649-0.847-6.955-2.538-9.917c-1.691-2.959-4.029-5.275-7.012-6.944
				c-2.982-1.67-6.321-2.504-10.016-2.504c-3.696,0-7.045,0.834-10.051,2.504c-3.005,1.669-5.365,3.985-7.078,6.944
				c-1.715,2.962-2.57,6.268-2.57,9.917c0,3.65,0.855,6.956,2.57,9.917c1.713,2.961,4.073,5.275,7.078,6.944
				c3.006,1.669,6.354,2.504,10.051,2.504C343.155,104.411,346.494,103.576,349.477,101.907z"/>
			<path fill="#4D4D4D" d="M396.186,105.747c-3.717-2.048-6.633-4.886-8.748-8.515c-2.113-3.628-3.17-7.689-3.17-12.188
				c0-4.496,1.057-8.558,3.17-12.187c2.115-3.629,5.043-6.466,8.781-8.515c3.74-2.047,7.924-3.071,12.555-3.071
				c3.473,0,6.678,0.579,9.615,1.735c2.938,1.158,5.432,2.851,7.479,5.075l-3.139,3.14c-3.652-3.695-8.26-5.543-13.822-5.543
				c-3.697,0-7.057,0.846-10.084,2.537c-3.027,1.692-5.398,4.007-7.111,6.945c-1.715,2.938-2.572,6.233-2.572,9.883
				c0,3.65,0.857,6.944,2.572,9.884c1.713,2.938,4.084,5.253,7.111,6.944c3.027,1.692,6.387,2.537,10.084,2.537
				c5.609,0,10.215-1.87,13.822-5.609l3.139,3.141c-2.049,2.226-4.553,3.929-7.514,5.106c-2.961,1.181-6.176,1.771-9.648,1.771
				C404.076,108.818,399.902,107.795,396.186,105.747z"/>
			<path fill="#4D4D4D" d="M464.266,86.448l-9.549,9.683v12.287h-4.941V61.674h4.941v28.247l27.444-28.247h5.677l-20.234,21.169
				l21.637,25.575h-5.877L464.266,86.448z"/>
			<path fill="#4D4D4D" d="M544.363,107.149c-3.184-1.112-5.643-2.582-7.379-4.407l1.938-3.808c1.69,1.692,3.938,3.062,6.743,4.107
				c2.806,1.045,5.697,1.569,8.681,1.569c4.186,0,7.323-0.77,9.416-2.306c2.092-1.535,3.139-3.526,3.139-5.977
				c0-1.87-0.566-3.36-1.701-4.474c-1.137-1.112-2.527-1.971-4.174-2.571c-1.648-0.602-3.939-1.257-6.881-1.97
				c-3.516-0.891-6.318-1.747-8.412-2.571c-2.094-0.823-3.883-2.08-5.375-3.772c-1.492-1.691-2.238-3.983-2.238-6.878
				c0-2.359,0.623-4.508,1.871-6.444c1.244-1.937,3.16-3.483,5.742-4.642c2.582-1.156,5.787-1.735,9.617-1.735
				c2.67,0,5.285,0.367,7.846,1.102c2.559,0.734,4.773,1.748,6.646,3.038l-1.673,3.94c-1.959-1.291-4.051-2.259-6.274-2.905
				c-2.228-0.646-4.408-0.968-6.543-0.968c-4.099,0-7.181,0.791-9.25,2.37c-2.07,1.581-3.104,3.618-3.104,6.11
				c0,1.87,0.566,3.372,1.701,4.508c1.135,1.135,2.559,2.003,4.275,2.604c1.711,0.601,4.016,1.258,6.908,1.969
				c3.43,0.847,6.2,1.682,8.313,2.505c2.115,0.824,3.908,2.069,5.377,3.739s2.203,3.93,2.203,6.777c0,2.359-0.635,4.508-1.902,6.443
				c-1.27,1.938-3.217,3.473-5.844,4.608c-2.627,1.135-5.854,1.702-9.684,1.702C550.873,108.818,547.547,108.263,544.363,107.149z"
				/>
			<path fill="#4D4D4D" d="M603.66,105.747c-3.717-2.048-6.633-4.886-8.746-8.515c-2.114-3.628-3.172-7.689-3.172-12.188
				c0-4.496,1.058-8.558,3.172-12.187c2.113-3.629,5.041-6.466,8.781-8.515c3.74-2.047,7.924-3.071,12.555-3.071
				c3.474,0,6.677,0.579,9.615,1.735c2.938,1.158,5.431,2.851,7.479,5.075l-3.14,3.14c-3.649-3.695-8.258-5.543-13.821-5.543
				c-3.695,0-7.058,0.846-10.084,2.537c-3.027,1.692-5.398,4.007-7.111,6.945c-1.715,2.938-2.57,6.233-2.57,9.883
				c0,3.65,0.855,6.944,2.57,9.884c1.713,2.938,4.084,5.253,7.111,6.944c3.026,1.692,6.389,2.537,10.084,2.537
				c5.608,0,10.217-1.87,13.821-5.609l3.14,3.141c-2.049,2.226-4.554,3.929-7.513,5.106c-2.961,1.181-6.178,1.771-9.649,1.771
				C611.551,108.818,607.376,107.795,603.66,105.747z"/>
			<path fill="#4D4D4D" d="M664.094,105.714c-3.763-2.07-6.701-4.909-8.814-8.515c-2.115-3.605-3.172-7.656-3.172-12.153
				c0-4.496,1.057-8.547,3.172-12.153c2.113-3.606,5.053-6.444,8.814-8.514c3.762-2.07,7.957-3.105,12.588-3.105
				s8.805,1.024,12.521,3.071c3.718,2.049,6.644,4.886,8.781,8.515c2.137,3.629,3.203,7.69,3.203,12.187s-1.066,8.56-3.203,12.188
				c-2.139,3.629-5.063,6.467-8.781,8.515c-3.717,2.048-7.891,3.071-12.521,3.071S667.856,107.783,664.094,105.714z
				 M686.697,101.907c2.984-1.669,5.32-3.983,7.014-6.944c1.689-2.961,2.537-6.267,2.537-9.917c0-3.649-0.848-6.955-2.537-9.917
				c-1.692-2.959-4.028-5.275-7.014-6.944c-2.981-1.67-6.32-2.504-10.016-2.504c-3.696,0-7.045,0.834-10.052,2.504
				c-3.006,1.669-5.362,3.985-7.077,6.944c-1.716,2.962-2.57,6.268-2.57,9.917c0,3.65,0.854,6.956,2.57,9.917
				c1.715,2.961,4.071,5.275,7.077,6.944c3.007,1.669,6.355,2.504,10.052,2.504S683.715,103.576,686.697,101.907z"/>
			<path fill="#4D4D4D" d="M757.547,108.418l-10.685-15.024c-1.201,0.134-2.447,0.2-3.738,0.2H730.57v14.824h-4.94V61.674h17.495
				c5.966,0,10.64,1.425,14.023,4.274c3.383,2.849,5.074,6.767,5.074,11.752c0,3.651-0.927,6.734-2.771,9.249
				c-1.85,2.516-4.486,4.33-7.914,5.441l11.418,16.026L757.547,108.418L757.547,108.418z M753.607,86.314
				c2.449-2.047,3.674-4.918,3.674-8.614c0-3.783-1.225-6.688-3.674-8.715c-2.447-2.024-5.986-3.037-10.615-3.037H730.57v23.438
				h12.422C747.621,89.386,751.16,88.363,753.607,86.314z"/>
			<path fill="#4D4D4D" d="M820.318,104.145v4.273h-33.055V61.674h32.053v4.274h-27.111v16.627h24.175v4.207h-24.175v17.361
				L820.318,104.145L820.318,104.145z"/>
			<path fill="#4D4D4D" d="M848.197,107.149c-3.182-1.112-5.643-2.582-7.379-4.407l1.938-3.808c1.69,1.692,3.938,3.062,6.743,4.107
				c2.804,1.046,5.697,1.569,8.683,1.569c4.184,0,7.322-0.77,9.414-2.306c2.092-1.535,3.139-3.526,3.139-5.977
				c0-1.87-0.568-3.36-1.701-4.474c-1.137-1.112-2.527-1.971-4.174-2.571c-1.648-0.602-3.939-1.257-6.879-1.97
				c-3.519-0.891-6.32-1.747-8.412-2.571c-2.094-0.823-3.887-2.08-5.377-3.772c-1.492-1.691-2.238-3.983-2.238-6.878
				c0-2.359,0.623-4.508,1.871-6.444c1.246-1.937,3.16-3.483,5.744-4.642c2.58-1.156,5.783-1.735,9.615-1.735
				c2.67,0,5.285,0.367,7.844,1.102c2.561,0.734,4.777,1.748,6.646,3.038l-1.671,3.94c-1.959-1.291-4.053-2.259-6.276-2.905
				c-2.226-0.646-4.408-0.968-6.543-0.968c-4.099,0-7.181,0.791-9.25,2.37c-2.07,1.581-3.105,3.618-3.105,6.11
				c0,1.87,0.568,3.372,1.703,4.508c1.137,1.135,2.561,2.003,4.275,2.604c1.711,0.601,4.016,1.258,6.91,1.969
				c3.428,0.847,6.198,1.682,8.313,2.505c2.113,0.824,3.906,2.069,5.373,3.739c1.471,1.67,2.205,3.93,2.205,6.777
				c0,2.359-0.633,4.508-1.902,6.443c-1.269,1.937-3.217,3.473-5.842,4.608c-2.627,1.135-5.854,1.702-9.684,1.702
				C854.708,108.818,851.379,108.263,848.197,107.149z"/>
		</g>
	</g>
	<g>
		<path i:knockout="Off" fill="#FFFFFF" d="M85.04,5.595c-2.373,0-4.605,0.924-6.284,2.602L8.193,78.763
			c-3.467,3.463-3.467,9.103,0,12.566l70.562,70.564c1.679,1.679,3.911,2.604,6.285,2.604c2.371,0,4.604-0.925,6.282-2.604
			l70.563-70.564c3.465-3.464,3.465-9.103,0-12.566L91.321,8.197C89.642,6.519,87.412,5.595,85.04,5.595z"/>
		<g>
			<g>
				<g>
					<path i:knockout="Off" fill="#009FE3" d="M70.176,99.954c-2.334-2.335-6.102-2.355-8.465-0.071l8.537,8.535
						C72.53,106.054,72.511,102.286,70.176,99.954z"/>
					<linearGradient id="SVGID_1_" gradientUnits="userSpaceOnUse" x1="56.0215" y1="46.6465" x2="123.7847" y2="46.6465">
						<stop  offset="0" style="stop-color:#134395"/>
						<stop  offset="0.0585" style="stop-color:#114C9C"/>
						<stop  offset="0.3325" style="stop-color:#0A70BB"/>
						<stop  offset="0.589" style="stop-color:#048AD1"/>
						<stop  offset="0.819" style="stop-color:#0199DE"/>
						<stop  offset="1" style="stop-color:#009FE3"/>
						<a:midPointStop  offset="0" style="stop-color:#134395"/>
						<a:midPointStop  offset="0.3436" style="stop-color:#134395"/>
						<a:midPointStop  offset="1" style="stop-color:#009FE3"/>
					</linearGradient>
					<path i:knockout="Off" fill="url(#SVGID_1_)" d="M101.416,60.087c-2.359,2.36-2.359,6.184,0,8.545
						c2.361,2.36,6.185,2.357,8.544-0.002l12.056-12.056c2.359-2.359,2.359-6.186,0-8.544L96.699,22.714
						c-2.359-2.358-6.184-2.358-8.544,0L57.79,53.077c-1.132,1.134-1.769,2.67-1.768,4.272c0,1.604,0.636,3.139,1.768,4.273
						l10.728,10.725l8.543-8.544l-2.024-2.024l0.002-0.007c-0.759-0.76-1.307-1.65-1.658-2.598
						c-0.591-1.593-0.601-3.353-0.034-4.955c0.349-0.983,0.909-1.911,1.693-2.695c0.579-0.579,12.243-12.24,12.243-12.24
						c0.786-0.788,1.71-1.345,2.696-1.696c1.59-0.562,3.333-0.557,4.919,0.022c0.964,0.35,1.865,0.904,2.635,1.674
						c4.308,4.307,7.596,7.644,7.596,7.644c2.372,2.843,2.222,7.09-0.447,9.759L101.416,60.087z"/>
					<linearGradient id="SVGID_2_" gradientUnits="userSpaceOnUse" x1="46.0503" y1="111.1729" x2="117.6714" y2="111.1729">
						<stop  offset="0" style="stop-color:#134395"/>
						<stop  offset="0.0585" style="stop-color:#114C9C"/>
						<stop  offset="0.3325" style="stop-color:#0A70BB"/>
						<stop  offset="0.589" style="stop-color:#048AD1"/>
						<stop  offset="0.819" style="stop-color:#0199DE"/>
						<stop  offset="1" style="stop-color:#009FE3"/>
						<a:midPointStop  offset="0" style="stop-color:#134395"/>
						<a:midPointStop  offset="0.3436" style="stop-color:#134395"/>
						<a:midPointStop  offset="1" style="stop-color:#009FE3"/>
					</linearGradient>
					<path i:knockout="Off" fill="url(#SVGID_2_)" d="M115.902,111.188c2.359-2.359,2.359-6.185,0-8.543l-28.59-28.588l-8.542,8.544
						l19.858,19.901c2.827,2.825,2.827,7.425,0,10.251l-17.149,17.148c-2.825,2.825-7.425,2.825-10.253,0l-11.261-11.193L60,118.675
						l-8.544-8.544l-3.636,3.636c-2.359,2.359-2.359,6.185,0,8.543l24.207,24.208c1.132,1.133,2.669,1.771,4.272,1.771
						c1.601-0.001,3.14-0.638,4.272-1.771L115.902,111.188z"/>
				</g>
			</g>
			<path i:knockout="Off" fill="#134395" d="M96.92,104.208l-1.1-1.099L75.332,82.623l1.729-1.729l8.543-8.545l16.43-16.427
				l0.943-0.943c1.515-1.516,1.791-3.787,0.867-5.603c-0.224-0.442-0.5-0.864-0.867-1.233c-1.884-1.884-4.951-1.884-6.836-0.001
				l-17.37,17.373l-8.544,8.542L47.93,96.354c-0.912,0.913-1.416,2.126-1.416,3.418c0,1.291,0.504,2.505,1.417,3.416l5.233,5.234
				l8.544,8.543l10.129,10.129l1.098,1.101c1.884,1.883,4.951,1.883,6.835,0l17.149-17.149
				C98.805,109.161,98.805,106.095,96.92,104.208z M76.353,117.94l-7.808-7.811l-8.546-8.542l-1.816-1.816l10.314-10.314
				l18.17,18.169L76.353,117.94z"/>
			<path i:knockout="Off" fill="#134395" d="M96.92,104.208l-1.1-1.099L75.332,82.623l1.729-1.729l8.543-8.545l16.43-16.427
				l0.943-0.943c1.515-1.516,1.791-3.787,0.867-5.603c-0.224-0.442-0.5-0.864-0.867-1.233c-1.884-1.884-4.951-1.884-6.836-0.001
				l-17.37,17.373l-8.544,8.542L47.93,96.354c-0.912,0.913-1.416,2.126-1.416,3.418c0,1.291,0.504,2.505,1.417,3.416l5.233,5.234
				l8.544,8.543l10.129,10.129l1.098,1.101c1.884,1.883,4.951,1.883,6.835,0l17.149-17.149
				C98.805,109.161,98.805,106.095,96.92,104.208z M76.353,117.94l-7.808-7.811l-8.546-8.542l-1.816-1.816l10.314-10.314
				l18.17,18.169L76.353,117.94z"/>
		</g>
		<g i:knockout="Off">
			<linearGradient id="SVGID_3_" gradientUnits="userSpaceOnUse" x1="2.834" y1="85.0459" x2="167.2446" y2="85.0459">
				<stop  offset="0" style="stop-color:#009FE3"/>
				<stop  offset="1" style="stop-color:#134395"/>
				<a:midPointStop  offset="0" style="stop-color:#009FE3"/>
				<a:midPointStop  offset="0.5" style="stop-color:#009FE3"/>
				<a:midPointStop  offset="1" style="stop-color:#134395"/>
			</linearGradient>
			<path i:knockout="Off" fill="url(#SVGID_3_)" d="M85.041,167.257c-3.111,0-6.036-1.211-8.236-3.411L6.24,93.281
				c-4.541-4.541-4.541-11.93-0.001-16.471L76.804,6.246c2.2-2.201,5.125-3.411,8.235-3.411s6.035,1.211,8.233,3.412l70.565,70.564
				c4.542,4.542,4.542,11.93,0,16.471l-70.563,70.564C91.075,166.046,88.152,167.257,85.041,167.257z M85.04,5.595
				c-2.373,0-4.605,0.924-6.284,2.602L8.193,78.763c-3.467,3.463-3.467,9.103,0,12.566l70.562,70.564
				c1.679,1.679,3.911,2.604,6.285,2.604c2.371,0,4.604-0.925,6.282-2.604l70.563-70.564c3.465-3.464,3.465-9.103,0-12.566
				L91.321,8.197C89.642,6.519,87.412,5.595,85.04,5.595z"/>
		</g>
	</g>
</g>
</svg>
